<svg xmlns="http://www.w3.org/2000/svg" version="1.1" xmlns:xlink="http://www.w3.org/1999/xlink" xmlns:svgjs="http://svgjs.dev/svgjs" width="1000" height="1125" viewBox="0 0 1000 1125"><g transform="matrix(1,0,0,1,0.0011008540699322111,0)"><svg viewBox="0 0 320 360" data-background-color="#106161" preserveAspectRatio="xMidYMid meet" height="1125" width="1000" xmlns="http://www.w3.org/2000/svg" xmlns:xlink="http://www.w3.org/1999/xlink"><g id="tight-bounds" transform="matrix(1,0,0,1,0.00010353528136874957,0)"><svg viewBox="0 0 320 360" height="360" width="320"><g><svg></svg></g><g><svg viewBox="0 0 320 360" height="360" width="320"><g><path xmlns="http://www.w3.org/2000/svg" d="M307.925 179.999l6.575-11.387c11.322-19.607 4.604-44.679-15.003-56.001l-11.387-6.575v-13.151c0-22.639-18.354-40.994-40.994-40.994h-13.151l-6.575-11.387c-11.322-19.607-36.393-26.325-56.001-15.003l-11.39 6.572-11.387-6.576c-19.607-11.318-44.679-4.6-56.001 15.007l-6.575 11.387h-13.151c-22.639 0-40.994 18.354-40.994 40.994v13.151l-11.387 6.575c-19.607 11.322-26.325 36.393-15.003 56.001l6.572 11.387-6.576 11.387c-11.318 19.607-4.6 44.679 15.007 56l11.387 6.576v13.15c0 22.639 18.354 40.994 40.994 40.994h13.151l6.575 11.387c11.322 19.607 36.393 26.325 56.001 15.003l11.387-6.571 11.387 6.575c19.607 11.322 44.679 4.604 56-15.003l6.576-11.387h13.15c22.639 0 40.994-18.354 40.994-40.994v-13.151l11.387-6.575c19.607-11.322 26.325-36.393 15.003-56.001zM297.702 115.716c8.655 4.996 14.842 13.062 17.428 22.713 2.586 9.65 1.261 19.734-3.735 28.384l-5.538 9.596-17.747-30.74v-35.494zM251.155 271.155l-57.791 33.365h-66.731l-57.791-33.365-33.365-57.791v-66.731l33.365-57.791 57.791-33.365h66.731l57.791 33.365 33.365 57.791v66.731zM284.517 220.539v31.351l-27.151 15.676zM247.566 277.366l-15.676 27.151h-31.351zM187.15 308.106l-27.151 15.676-27.151-15.676zM119.459 304.517h-31.352l-15.676-27.151zM62.632 267.566l-27.151-15.676v-31.351zM31.891 207.15l-15.675-27.151 15.675-27.151zM35.481 139.459v-31.352l27.151-15.676zM72.431 82.632l15.676-27.151h31.352zM132.848 51.891l27.151-15.675 27.151 15.675zM200.539 55.481h31.351l15.676 27.151zM257.366 92.431l27.151 15.676v31.352zM288.106 152.848l15.676 27.151-15.676 27.151zM247.112 55.481c9.992 0 19.384 3.889 26.452 10.956 7.063 7.063 10.956 16.46 10.957 26.452v11.079l-30.741-17.747-17.747-30.74zM173.18 28.606c8.655-4.996 18.735-6.322 28.385-3.735 9.65 2.586 17.716 8.777 22.712 17.428l5.538 9.596h-35.494l-30.741-17.747zM95.716 42.295c4.996-8.655 13.062-14.842 22.713-17.428 9.65-2.586 19.734-1.261 28.384 3.736l9.596 5.537-30.74 17.747h-35.494zM35.481 92.885c0-9.992 3.889-19.384 10.956-26.452 7.063-7.063 16.46-10.956 26.452-10.956h11.079l-17.747 30.74-30.74 17.747zM8.606 166.817c-4.996-8.655-6.322-18.735-3.735-28.385 2.586-9.65 8.777-17.716 17.428-22.712l9.596-5.538v35.495l-17.747 30.74zM22.295 244.281c-8.655-4.996-14.842-13.062-17.428-22.712-2.586-9.65-1.261-19.734 3.736-28.385l5.537-9.596 17.747 30.74v35.495zM72.885 304.517c-9.992 0-19.384-3.889-26.452-10.957-7.063-7.063-10.956-16.46-10.956-26.451v-11.08l30.74 17.747 17.747 30.741zM146.817 331.391c-8.655 4.996-18.735 6.322-28.385 3.735-9.65-2.586-17.716-8.777-22.712-17.428l-5.538-9.596h35.495l30.74 17.747zM224.281 317.702c-4.996 8.655-13.062 14.842-22.712 17.428-9.65 2.586-19.734 1.261-28.385-3.735l-9.596-5.538 30.74-17.747h35.495zM284.517 267.112c0 9.992-3.889 19.384-10.957 26.452-7.063 7.063-16.46 10.956-26.451 10.957h-11.08l17.747-30.741 30.741-17.747zM315.13 221.565c-2.586 9.65-8.777 17.716-17.428 22.712l-9.596 5.538v-35.494l17.747-30.741 5.538 9.596c4.996 8.658 6.326 18.739 3.739 28.389z" fill="#ffffff" fill-rule="nonzero" stroke="none" stroke-width="1" stroke-linecap="butt" stroke-linejoin="miter" stroke-miterlimit="10" stroke-dasharray="" stroke-dashoffset="0" font-family="none" font-weight="none" font-size="none" text-anchor="none" style="mix-blend-mode: normal" data-fill-palette-color="tertiary"></path></g><g transform="matrix(1,0,0,1,70.08999999999999,90.08999999999999)"><svg viewBox="0 0 179.82000000000002 179.82000000000002" height="179.82000000000002" width="179.82000000000002"><g><svg viewBox="0 0 179.82000000000002 179.82000000000002" height="179.82000000000002" width="179.82000000000002"><g><svg viewBox="0 0 179.82000000000002 179.82000000000002" height="179.82000000000002" width="179.82000000000002"><g id="textblocktransform"><svg viewBox="0 0 179.82000000000002 179.82000000000002" height="179.82000000000002" width="179.82000000000002" id="textblock"><g><svg viewBox="0 0 179.82000000000002 179.82000000000002" height="179.82000000000002" width="179.82000000000002"><g transform="matrix(1,0,0,1,47.526019535678344,48.09327831952929)"><svg viewBox="0 0 84.76796092864333 83.63344336094144" height="83.63344336094144" width="84.76796092864333"><g><svg xmlns="http://www.w3.org/2000/svg" xmlns:xlink="http://www.w3.org/1999/xlink" version="1.1" x="0" y="0" viewBox="5.284000396728516 5.4459991455078125 89.88499450683594 88.68199157714844" enable-background="new 0 0 100 100" xml:space="preserve" height="83.63344336094144" width="84.76796092864333" class="icon-o-0" data-fill-palette-color="accent" id="o-0"><path fill-rule="evenodd" clip-rule="evenodd" d="M12.366 49.89c0-8.49 6.909-15.399 15.399-15.399l0 0c2.268 0 4.193 0.412 6.256 1.375l0 0c0.516-0.412 0.928-0.825 1.375-1.306l0 0c-2.475-1.272-4.846-1.856-7.631-1.856l0 0c-9.487 0-17.152 7.699-17.152 17.186l0 0v6.737c0.584-0.722 1.1-1.272 1.753-1.89l0 0V49.89L12.366 49.89zM88.088 49.89c0-8.49-6.874-15.399-15.399-15.399l0 0c-2.268 0-4.193 0.412-6.256 1.375l0 0c-0.516-0.412-0.928-0.825-1.34-1.306l0 0c2.475-1.272 4.812-1.856 7.596-1.856l0 0c9.487 0 17.186 7.699 17.186 17.186l0 0v6.737c-0.584-0.722-1.134-1.272-1.787-1.89l0 0V49.89L88.088 49.89zM27.764 90.587c-10.449 0-18.939-8.49-18.939-18.939l0 0v-0.516c0-10.484 8.49-18.939 18.939-18.939 3.128 0 5.74 0.619 8.524 2.028l0 0c0.309-0.55 0.516-1.031 0.722-1.65l0 0c-10.243-5.087-22.686-0.928-27.773 9.315-1.512 2.99-2.165 5.878-2.165 9.246l0 0v0.516c0 11.412 9.246 20.692 20.692 20.692l0 0h22.48 22.445c11.446 0 20.727-9.281 20.727-20.692l0 0v-0.516c0-11.446-9.281-20.727-20.727-20.727-3.368 0-6.221 0.687-9.212 2.165l0 0c0.172 0.619 0.412 1.1 0.687 1.65l0 0c9.349-4.709 20.726-0.962 25.436 8.353 1.409 2.784 2.028 5.431 2.028 8.559l0 0v0.516c0 10.449-8.456 18.939-18.939 18.939l0 0H50.244 27.764L27.764 90.587zM27.764 87.046c-8.49 0-15.399-6.909-15.399-15.399l0 0v-0.516c0-8.524 6.909-15.399 15.399-15.399 2.234 0 4.159 0.378 6.187 1.272l0 0c0.516-0.412 0.928-0.791 1.34-1.306C26.768 51.54 16.49 55.08 12.331 63.57c-1.203 2.475-1.719 4.812-1.719 7.562l0 0v0.516c0 9.487 7.665 17.152 17.152 17.152l0 0h22.48 22.445c9.487 0 17.186-7.665 17.186-17.152l0 0v-0.516c0-9.487-7.699-17.186-17.186-17.186-2.715 0-5.053 0.55-7.528 1.753l0 0c0.447 0.516 0.825 0.894 1.34 1.306l0 0c7.768-3.403 16.877 0.137 20.28 7.906 0.928 2.062 1.306 3.953 1.306 6.222l0 0v0.516c0 8.49-6.874 15.399-15.399 15.399l0 0H50.244 27.764L27.764 87.046zM72.689 85.259c7.528 0 13.646-6.084 13.646-13.612l0 0v-0.516c0-7.528-6.118-13.646-13.646-13.646-1.547 0-2.887 0.206-4.365 0.722l0 0c1.409 0.722 2.784 1.031 4.365 1.031l0 0c6.565 0 11.858 5.328 11.858 11.893l0 0v0.516c0 6.531-5.293 11.858-11.858 11.858l0 0H50.244h-22.48c-6.531 0-11.858-5.328-11.858-11.858l0 0v-0.516c0-6.565 5.328-11.893 11.858-11.893l0 0c1.615 0 2.956-0.309 4.4-1.031l0 0c-7.15-2.406-14.883 1.409-17.289 8.524-0.516 1.478-0.722 2.819-0.722 4.4l0 0v0.516c0 7.528 6.084 13.612 13.612 13.612l0 0h22.48H72.689L72.689 85.259zM72.689 62.779c-7.321 0-13.233-5.912-13.233-13.268 0-1.1 0.103-2.062 0.378-3.162l0 0c0.55 0.378 0.997 0.687 1.581 1.031l0 0c-1.203 6.222 2.887 12.237 9.143 13.44 0.722 0.137 1.375 0.206 2.131 0.206l0 0c2.131 0 3.953 0.55 5.706 1.753l0 0H72.689L72.689 62.779zM72.689 66.32c-9.281 0-16.774-7.528-16.774-16.808 0-1.994 0.275-3.712 0.962-5.637l0 0c0.481 0.481 0.894 0.894 1.444 1.306l0 0c-2.406 7.974 2.097 16.361 10.037 18.733 1.478 0.447 2.784 0.653 4.331 0.653l0 0h7.699c0.481 0.584 0.825 1.1 1.203 1.753l0 0H72.689L72.689 66.32zM72.689 68.107h9.624c0.206 0.584 0.309 1.134 0.412 1.753l0 0H72.689c-11.205 0-20.314-9.109-20.314-20.348 0-3.128 0.584-5.809 1.925-8.662l0 0c0.412 0.584 0.791 1.031 1.237 1.581l0 0c-3.919 9.487 0.619 20.349 10.071 24.267C67.98 67.66 70.146 68.107 72.689 68.107L72.689 68.107zM91.628 49.89v9.109c0.722 1.134 1.237 2.131 1.787 3.369l0 0V49.89c0-11.446-9.281-20.692-20.727-20.692l0 0c-3.437 0-6.359 0.722-9.418 2.303l0 0c0.206 0.584 0.447 1.066 0.756 1.616l0 0c2.818-1.512 5.5-2.166 8.662-2.166l0 0C83.173 30.95 91.628 39.44 91.628 49.89L91.628 49.89 91.628 49.89zM50.244 74.638h-0.275c0.825-5.293-0.034-10.037-2.715-14.677l0 0c3.609-6.737 3.609-14.127 0-20.864l0 0c2.062-3.575 2.99-7.046 2.99-11.171l0 0c0-12.408-10.071-22.48-22.48-22.48s-22.48 10.071-22.48 22.48l0 0v43.722c0 12.408 10.071 22.48 22.48 22.48l0 0h22.48 22.445c12.408 0 22.48-10.071 22.48-22.48l0 0V27.926c0-12.408-10.071-22.48-22.48-22.48s-22.445 10.071-22.445 22.48l0 0c0 4.125 0.928 7.596 2.956 11.171l0 0c-3.575 6.737-3.575 14.127 0 20.864l0 0c-2.647 4.64-3.54 9.384-2.681 14.677l0 0H50.244L50.244 74.638zM8.825 49.89v9.109l0 0c-0.722 1.134-1.237 2.131-1.753 3.369V49.89l0 0c0-11.446 9.246-20.692 20.692-20.692l0 0c3.437 0 6.393 0.722 9.452 2.303l0 0c-0.241 0.584-0.447 1.066-0.791 1.616l0 0c-2.784-1.512-5.5-2.166-8.662-2.166l0 0C17.315 30.95 8.825 39.44 8.825 49.89L8.825 49.89zM27.764 68.107H18.14c-0.206 0.584-0.309 1.134-0.378 1.753l0 0h10.002c11.24 0 20.348-9.109 20.348-20.348 0-3.128-0.619-5.809-1.959-8.662l0 0c-0.412 0.584-0.756 1.031-1.237 1.581l0 0c3.919 9.487-0.584 20.349-10.071 24.267C32.474 67.66 30.308 68.107 27.764 68.107L27.764 68.107zM27.764 64.567h-7.665c-0.481 0.584-0.859 1.1-1.203 1.753l0 0h8.868c9.281 0 16.808-7.528 16.808-16.808 0-1.994-0.309-3.712-0.997-5.637h0.034c-0.516 0.481-0.928 0.894-1.444 1.306l0 0c2.372 7.974-2.131 16.361-10.071 18.733C30.617 64.361 29.311 64.567 27.764 64.567L27.764 64.567zM27.764 62.779c7.321 0 13.268-5.912 13.268-13.268 0-1.1-0.103-2.062-0.378-3.162l0 0c-0.55 0.378-1.031 0.687-1.581 1.031l0 0c1.169 6.222-2.922 12.237-9.143 13.44-0.756 0.137-1.409 0.206-2.165 0.206l0 0c-2.131 0-3.953 0.55-5.706 1.753l0 0H27.764L27.764 62.779zM48.147 74.638H46.36c0.756-3.987 0.344-7.596-1.34-11.308l0 0c0.447-0.55 0.791-1.031 1.203-1.616l0 0C48.319 65.873 48.972 70.032 48.147 74.638L48.147 74.638zM80.389 78.178H50.244 20.099c0.584 0.722 1.203 1.272 1.959 1.787l0 0h28.185 28.151C79.186 79.45 79.77 78.9 80.389 78.178L80.389 78.178zM18.14 74.638h19.077c0.687-1.787 0.825-3.472 0.481-5.362l0 0c-3.231 1.65-6.325 2.372-9.934 2.372l0 0H17.693c0 5.568 4.503 10.071 10.071 10.071l0 0h22.48 22.445c5.568 0 10.105-4.503 10.105-10.071l0 0H72.689c-3.609 0-6.668-0.722-9.899-2.372l0 0c-0.344 1.89-0.206 3.575 0.447 5.362l0 0h19.077c-0.172 0.653-0.412 1.203-0.722 1.787l0 0H50.244 18.896C18.553 75.841 18.346 75.291 18.14 74.638L18.14 74.638zM55.434 63.329c-0.447-0.55-0.791-1.031-1.169-1.616l0 0c-2.131 4.159-2.75 8.318-1.959 12.924l0 0h1.787C53.338 70.651 53.784 67.042 55.434 63.329L55.434 63.329zM56.74 64.807c-1.306 3.3-1.547 6.393-0.825 9.83l0 0h1.787c-0.687-2.922-0.55-5.603 0.412-8.49l0 0C57.634 65.701 57.222 65.323 56.74 64.807L56.74 64.807zM59.593 67.351c-0.687 2.475-0.722 4.778-0.034 7.287l0 0h1.822c-0.653-2.131-0.722-4.09-0.206-6.256l0 0C60.59 68.038 60.143 67.729 59.593 67.351L59.593 67.351zM40.86 67.351c0.722 2.475 0.756 4.778 0.069 7.287l0 0h-1.856c0.687-2.131 0.756-4.09 0.241-6.256l0 0C39.864 68.038 40.345 67.729 40.86 67.351L40.86 67.351zM43.748 64.807c1.272 3.3 1.547 6.393 0.825 9.83l0 0h-1.822c0.687-2.922 0.55-5.603-0.412-8.49l0 0C42.854 65.701 43.267 65.323 43.748 64.807L43.748 64.807zM12.366 27.926v5.603c-0.653 0.619-1.169 1.169-1.753 1.856l0 0v-7.459c0-9.487 7.665-17.152 17.152-17.152s17.152 7.665 17.152 17.152l0 0c0 9.487-7.665 17.186-17.152 17.186l0 0h-8.868c0.344-0.687 0.722-1.203 1.203-1.787l0 0h7.665c8.49 0 15.399-6.875 15.399-15.399l0 0c0-8.49-6.909-15.399-15.399-15.399S12.366 19.436 12.366 27.926L12.366 27.926zM27.764 48.652H17.762c0.069-0.653 0.172-1.169 0.378-1.787l0 0h9.624c10.449 0 18.939-8.456 18.939-18.939l0 0c0-10.449-8.49-18.939-18.939-18.939S8.825 17.476 8.825 27.926l0 0v9.865c-0.722 1.134-1.237 2.131-1.753 3.368l0 0V27.926c0-11.412 9.246-20.692 20.692-20.692 11.446 0 20.692 9.281 20.692 20.692l0 0C48.457 39.372 39.21 48.652 27.764 48.652L27.764 48.652zM72.689 48.652h10.037c-0.103-0.653-0.206-1.169-0.412-1.787l0 0h-9.624c-10.449 0-18.905-8.456-18.905-18.939l0 0c0-10.449 8.456-18.939 18.905-18.939 10.484 0 18.939 8.49 18.939 18.939l0 0v9.865c0.722 1.134 1.237 2.131 1.787 3.368l0 0V27.926c0-11.412-9.281-20.692-20.727-20.692-11.412 0-20.692 9.281-20.692 20.692l0 0C51.997 39.372 61.278 48.652 72.689 48.652L72.689 48.652zM82.795 51.024c-0.481-0.241-0.859-0.412-1.34-0.619l0 0h1.34V51.024L82.795 51.024zM72.689 27.41c-3.609 0-6.668 0.722-9.899 2.372l0 0c-0.137-0.653-0.172-1.203-0.172-1.856l0 0c0-5.568 4.503-10.071 10.071-10.071s10.105 4.503 10.105 10.071l0 0v1.89C79.495 28.166 76.367 27.41 72.689 27.41L72.689 27.41zM84.548 49.89c0-6.565-5.293-11.858-11.858-11.858l0 0c-1.581 0-2.956-0.309-4.4-1.031l0 0c1.478-0.516 2.818-0.756 4.4-0.756l0 0c7.528 0 13.646 6.118 13.646 13.646l0 0v3.369c-0.619-0.481-1.134-0.825-1.787-1.237l0 0V49.89L84.548 49.89zM88.088 27.926c0-8.49-6.874-15.399-15.399-15.399-8.49 0-15.365 6.909-15.365 15.399l0 0c0 8.524 6.875 15.399 15.365 15.399l0 0h7.699c0.481 0.584 0.825 1.1 1.203 1.787l0 0h-8.902c-9.452 0-17.152-7.7-17.152-17.186l0 0c0-9.487 7.699-17.152 17.152-17.152 9.487 0 17.186 7.665 17.186 17.152l0 0v7.459c-0.584-0.687-1.134-1.237-1.787-1.856l0 0V27.926L88.088 27.926zM84.548 27.926c0-6.531-5.293-11.858-11.858-11.858-6.531 0-11.858 5.328-11.858 11.858l0 0c0 6.565 5.328 11.858 11.858 11.858l0 0c2.131 0 3.953 0.584 5.706 1.787l0 0h-5.706c-7.528 0-13.611-6.118-13.611-13.646s6.084-13.612 13.611-13.612 13.646 6.084 13.646 13.612l0 0v4.09c-0.619-0.447-1.134-0.825-1.787-1.203l0 0V27.926L84.548 27.926zM63.065 50.818c-0.137-0.894-0.137-1.684 0-2.578l0 0c1.169 0.55 2.165 0.928 3.403 1.272l0 0C65.23 49.89 64.234 50.268 63.065 50.818L63.065 50.818zM15.906 27.926c0-6.531 5.328-11.858 11.858-11.858 6.565 0 11.858 5.328 11.858 11.858l0 0c0 6.565-5.293 11.858-11.858 11.858l0 0c-2.131 0-3.953 0.584-5.706 1.787l0 0h5.706c7.528 0 13.611-6.118 13.611-13.646l0 0c0-7.528-6.084-13.612-13.611-13.612s-13.612 6.084-13.612 13.612l0 0v4.09c0.584-0.447 1.1-0.825 1.753-1.203l0 0V27.926L15.906 27.926zM17.693 29.816c3.265-1.65 6.393-2.406 10.071-2.406l0 0c3.609 0 6.703 0.722 9.934 2.372l0 0c0.103-0.653 0.172-1.203 0.172-1.856l0 0c0-5.568-4.537-10.071-10.105-10.071s-10.071 4.503-10.071 10.071l0 0V29.816L17.693 29.816zM15.906 49.89v2.131c-0.653 0.412-1.169 0.756-1.753 1.237l0 0V49.89c0-7.528 6.084-13.646 13.612-13.646l0 0c1.581 0 2.922 0.241 4.4 0.756l0 0c-1.444 0.722-2.784 1.031-4.4 1.031l0 0C21.234 38.031 15.906 43.325 15.906 49.89L15.906 49.89 15.906 49.89zM34.02 49.512c1.203-0.344 2.234-0.722 3.403-1.272l0 0c0.103 0.894 0.103 1.684 0 2.578l0 0C36.254 50.268 35.223 49.89 34.02 49.512L34.02 49.512zM17.693 51.024v-0.619h1.34C18.553 50.612 18.14 50.783 17.693 51.024L17.693 51.024z" fill="#b3e9ac" data-fill-palette-color="accent"></path></svg></g></svg></g><g><path d="M15.829 53.846v0c1.235 0.459 2.291 1.085 3.168 1.879 0.877 0.794 1.552 1.701 2.025 2.721 0.467 1.018 0.712 2.128 0.734 3.329 0.023 1.201-0.202 2.438-0.674 3.71v0l-2.383 6.421-16.828-6.246 2.383-6.42c0.472-1.273 1.109-2.357 1.91-3.253 0.807-0.893 1.72-1.573 2.738-2.039 1.012-0.469 2.112-0.718 3.3-0.745 1.182-0.03 2.391 0.185 3.627 0.643zM14.641 57.047v0c-0.923-0.343-1.798-0.529-2.625-0.559-0.823-0.021-1.575 0.104-2.258 0.375-0.674 0.268-1.27 0.678-1.788 1.232-0.511 0.556-0.92 1.245-1.226 2.069v0l-1.212 3.266 11.848 4.398 1.212-3.267c0.306-0.824 0.443-1.614 0.412-2.371-0.025-0.755-0.209-1.455-0.552-2.1-0.334-0.649-0.823-1.235-1.466-1.758-0.64-0.514-1.421-0.943-2.345-1.285z" fill="#ffffff" data-fill-palette-color="primary"></path><path d="M44.927 11.272l10.335 14.674-2.75 1.937-4.518-6.415-6.881 4.846 4.518 6.415-2.75 1.937-10.336-14.674 2.751-1.937 4.443 6.309 6.881-4.846-4.444-6.309z" fill="#ffffff" data-fill-palette-color="primary"></path><path d="M92.966 0.035l6.865 18.019-2.585-0.026c-0.286-0.003-0.522-0.079-0.707-0.227-0.185-0.148-0.316-0.329-0.394-0.543v0l-1.31-3.677-7.437-0.076-1.375 3.65c-0.069 0.192-0.2 0.364-0.394 0.516-0.195 0.158-0.435 0.235-0.722 0.232v0l-2.595-0.027 7.24-17.876zM90.527 5.231l-2.247 5.927 5.72 0.058-2.115-5.991c-0.097-0.267-0.204-0.581-0.32-0.942-0.116-0.361-0.232-0.754-0.348-1.181v0c-0.117 0.425-0.235 0.82-0.351 1.184-0.117 0.358-0.23 0.673-0.339 0.945z" fill="#ffffff" data-fill-palette-color="primary"></path><path d="M134.38 29.411v0c0.626 0.417 1.211 0.722 1.754 0.915 0.539 0.199 1.086 0.339 1.639 0.42v0l1.808-2.718-1.87-1.244c-0.177-0.118-0.285-0.262-0.324-0.432-0.039-0.17-0.009-0.329 0.091-0.479v0l1.045-1.571 4.979 3.313-4.026 6.05c-0.567 0.023-1.121-0.003-1.665-0.076-0.546-0.068-1.097-0.19-1.65-0.367-0.55-0.182-1.111-0.415-1.681-0.699-0.576-0.287-1.172-0.636-1.787-1.045v0c-1.086-0.723-1.963-1.578-2.632-2.567-0.66-0.991-1.1-2.047-1.321-3.169-0.215-1.118-0.199-2.271 0.047-3.458 0.246-1.187 0.738-2.335 1.475-3.443v0c0.748-1.125 1.617-2.034 2.606-2.727 0.989-0.693 2.043-1.154 3.163-1.384 1.12-0.23 2.283-0.211 3.489 0.055 1.206 0.267 2.404 0.796 3.595 1.589v0c1.219 0.811 2.155 1.694 2.807 2.647 0.652 0.954 1.095 1.928 1.329 2.923v0l-1.647 0.727c-0.325 0.152-0.617 0.141-0.877-0.033v0c-0.166-0.111-0.298-0.278-0.397-0.503v0c-0.133-0.28-0.274-0.562-0.421-0.844-0.144-0.288-0.322-0.574-0.533-0.858-0.214-0.279-0.476-0.564-0.784-0.858-0.309-0.293-0.69-0.591-1.144-0.893v0c-0.737-0.49-1.486-0.813-2.247-0.967-0.759-0.145-1.504-0.125-2.234 0.06-0.727 0.18-1.42 0.518-2.078 1.015-0.659 0.497-1.253 1.145-1.784 1.942v0c-0.571 0.859-0.96 1.707-1.167 2.546-0.208 0.829-0.249 1.617-0.122 2.365 0.132 0.751 0.414 1.45 0.846 2.097 0.436 0.642 1.009 1.199 1.718 1.671z" fill="#ffffff" data-fill-palette-color="primary"></path><path d="M176.418 59.978l-14.129 13.124-0.945-2.406c-0.105-0.266-0.123-0.513-0.055-0.74 0.068-0.227 0.187-0.417 0.356-0.569v0l2.917-2.594-2.72-6.922-3.899 0.095c-0.204 0.009-0.412-0.049-0.626-0.173-0.219-0.121-0.381-0.315-0.485-0.581v0l-0.95-2.416 19.287 0.005zM170.686 59.667l-6.337 0.141 2.092 5.324 4.76-4.208c0.211-0.19 0.462-0.407 0.753-0.65 0.291-0.243 0.612-0.498 0.965-0.765v0c-0.438 0.05-0.848 0.09-1.23 0.118-0.376 0.026-0.71 0.04-1.003 0.04z" fill="#ffffff" data-fill-palette-color="primary"></path><path d="M9.165 122.74l-0.95-2.297 14.325-10.627 0.935 2.26-11.577 8.496 14.394-1.688 0.878 2.121-11.386 8.958 14.207-2.141 0.923 2.232-17.646 2.602-0.95-2.296 11.314-9.133z" fill="#ffffff" data-fill-palette-color="primary"></path><path d="M19.983 144.163v0c-0.231-0.318-0.447-0.671-0.647-1.06-0.199-0.398-0.325-0.825-0.377-1.282-0.052-0.456 0.036-0.923 0.264-1.401 0.237-0.477 0.679-0.951 1.325-1.421v0l8.314-6.049c0.554-0.403 1.083-0.66 1.587-0.772 0.502-0.102 0.965-0.093 1.389 0.027 0.43 0.115 0.815 0.312 1.158 0.59 0.351 0.279 0.65 0.589 0.897 0.927v0c0.583 0.835 1.117 1.603 1.602 2.304 0.48 0.705 0.926 1.363 1.339 1.976 0.404 0.612 0.792 1.202 1.164 1.77v0l-1.574 1.145-3.923-5.392c-0.341-0.468-0.73-0.749-1.168-0.842-0.429-0.091-0.904 0.053-1.426 0.433v0l-2.898 2.108 4.28 6.121-1.485 1.08-4.522-5.944-2.866 2.085c-0.431 0.313-0.701 0.621-0.81 0.923-0.11 0.302-0.116 0.599-0.019 0.89 0.093 0.286 0.237 0.564 0.433 0.833v0l3.894 5.352-1.582 1.151c-0.464-0.559-0.945-1.152-1.442-1.778-0.498-0.617-0.995-1.243-1.49-1.879-0.494-0.645-0.966-1.277-1.417-1.895z" fill="#ffffff" data-fill-palette-color="primary"></path><path d="M29.722 155.173l-1.833-1.619 15.782-9.144 2.245 1.982-7.116 16.795-1.849-1.632 1.855-4.409-4.962-4.38zM43.411 146.937l-7.726 4.604 4.093 3.614z" fill="#ffffff" data-fill-palette-color="primary"></path><path d="M49.635 169.573l-2.61-1.468 3.44-17.913 2.132 1.199-3.034 15.255 11.483-10.505 2.106 1.184z" fill="#ffffff" data-fill-palette-color="primary"></path><path d="M61.764 175.214l-2.209-0.848 6.197-16.152 2.209 0.848z" fill="#ffffff" data-fill-palette-color="primary"></path><path d="M70.503 177.459l-2.326-0.486 3.536-16.935 1.886 0.394 5.585 14.719 2.711-12.987 2.297 0.479-3.536 16.935-1.856-0.387-5.588-14.71z" fill="#ffffff" data-fill-palette-color="primary"></path><path d="M92.249 179.816v0c-1.091 0.031-1.996-0.133-2.714-0.494-0.718-0.368-1.286-0.914-1.704-1.639-0.418-0.732-0.72-1.649-0.904-2.751-0.185-1.095-0.289-2.371-0.313-3.828v0c-0.024-1.437 0.045-2.706 0.206-3.808 0.162-1.094 0.456-2.014 0.883-2.76 0.427-0.739 1.033-1.302 1.819-1.688 0.786-0.379 1.771-0.578 2.955-0.598v0c0.672-0.011 1.338 0.001 1.998 0.037 0.66 0.036 1.3 0.102 1.92 0.198 0.621 0.09 1.205 0.193 1.752 0.31v0l0.03 1.807c-0.314-0.041-0.753-0.081-1.319-0.118-0.56-0.044-1.183-0.077-1.869-0.099-0.679-0.029-1.372-0.037-2.077-0.025v0c-1.091 0.018-1.923 0.245-2.495 0.68-0.572 0.442-0.963 1.154-1.173 2.136-0.217 0.982-0.312 2.285-0.284 3.909v0c0.022 1.304 0.103 2.381 0.243 3.23 0.141 0.85 0.355 1.518 0.642 2.007 0.294 0.488 0.689 0.834 1.185 1.038 0.496 0.198 1.12 0.291 1.872 0.279v0c0.719-0.012 1.433-0.107 2.142-0.285 0.709-0.185 1.312-0.368 1.808-0.549v0l-0.076-4.582-3.853 0.064-0.03-1.807c0.312-0.052 0.684-0.095 1.116-0.128 0.432-0.04 0.884-0.078 1.356-0.112 0.479-0.028 0.961-0.046 1.447-0.054v0c0.439-0.007 0.842-0.007 1.208 0 0.366 0.014 0.699 0.032 1 0.053v0l0.154 9.343-1.757 0.029-0.379-1.192c-0.508 0.275-1.189 0.569-2.042 0.882-0.86 0.307-1.776 0.479-2.747 0.515z" fill="#ffffff" data-fill-palette-color="primary"></path><path d="M120.714 174.265l-6.331 2.159-5.583-16.375 6.084-2.075c1.468-0.5 2.682-0.517 3.643-0.05 0.961 0.467 1.679 1.396 2.153 2.789v0c0.232 0.68 0.332 1.304 0.301 1.87-0.032 0.566-0.167 1.066-0.407 1.499-0.237 0.439-0.552 0.793-0.946 1.061v0c0.345-0.019 0.715 0.002 1.109 0.065 0.394 0.063 0.791 0.205 1.19 0.427 0.391 0.218 0.757 0.529 1.098 0.933 0.335 0.406 0.611 0.927 0.829 1.564v0c0.389 1.14 0.507 2.105 0.354 2.895-0.152 0.79-0.531 1.443-1.135 1.959-0.596 0.52-1.383 0.946-2.359 1.279zM114.055 168.13l1.885 5.527 4.025-1.373c0.529-0.18 0.956-0.424 1.279-0.731 0.33-0.31 0.535-0.71 0.614-1.201 0.079-0.491-0.011-1.114-0.269-1.87v0c-0.187-0.548-0.467-0.976-0.839-1.286-0.366-0.311-0.78-0.504-1.241-0.578-0.468-0.073-0.944-0.026-1.429 0.139v0zM111.722 161.289l1.743 5.112 3.912-1.334c0.636-0.217 1.07-0.625 1.301-1.225 0.236-0.608 0.232-1.289-0.011-2.042v0c-0.297-0.974-0.727-1.577-1.291-1.806-0.557-0.232-1.17-0.234-1.837-0.007v0z" fill="#ffffff" data-fill-palette-color="primary"></path><path d="M136.228 166.652v0c-0.963 0.581-1.866 0.997-2.709 1.25-0.843 0.252-1.662 0.272-2.458 0.06-0.796-0.212-1.613-0.741-2.45-1.588-0.843-0.844-1.751-2.072-2.724-3.685v0c-0.969-1.607-1.632-2.983-1.989-4.128-0.362-1.142-0.455-2.127-0.279-2.956 0.176-0.829 0.568-1.559 1.175-2.189 0.607-0.63 1.392-1.236 2.355-1.817v0c0.992-0.598 1.911-1.02 2.756-1.266 0.846-0.246 1.672-0.25 2.476-0.013 0.804 0.238 1.627 0.783 2.467 1.636 0.841 0.853 1.746 2.083 2.716 3.69v0c0.973 1.613 1.639 2.987 1.997 4.123 0.359 1.136 0.446 2.105 0.262 2.908-0.184 0.803-0.584 1.518-1.2 2.147-0.616 0.628-1.414 1.238-2.395 1.828zM135.14 164.849v0c0.695-0.419 1.243-0.851 1.644-1.295 0.401-0.444 0.632-0.956 0.694-1.537 0.065-0.575-0.061-1.273-0.377-2.093-0.314-0.829-0.835-1.848-1.563-3.056v0c-0.767-1.271-1.451-2.245-2.054-2.923-0.603-0.678-1.167-1.123-1.692-1.335-0.53-0.209-1.081-0.234-1.654-0.075-0.569 0.165-1.201 0.456-1.896 0.876v0c-0.655 0.395-1.186 0.805-1.591 1.228-0.396 0.426-0.631 0.925-0.706 1.498-0.08 0.577 0.034 1.293 0.341 2.15 0.307 0.856 0.843 1.92 1.61 3.19v0c0.729 1.208 1.384 2.146 1.965 2.814 0.572 0.665 1.128 1.103 1.667 1.314 0.543 0.217 1.104 0.251 1.683 0.104 0.579-0.147 1.223-0.434 1.929-0.86z" fill="#ffffff" data-fill-palette-color="primary"></path><path d="M148.707 157.09l-1.718 1.641-11.946-12.514 1.394-1.331 15.291 3.745-9.16-9.597 1.697-1.62 11.945 12.515-1.372 1.309-15.285-3.737z" fill="#ffffff" data-fill-palette-color="primary"></path><path d="M163.935 138.818l-3.852 5.83-14.434-9.536 3.852-5.83c0.594-0.9 1.259-1.549 1.994-1.95 0.731-0.394 1.531-0.58 2.4-0.555 0.871 0.033 1.809 0.262 2.814 0.686 1.008 0.418 2.081 1.004 3.219 1.756v0c1.538 1.016 2.724 2.059 3.557 3.127 0.837 1.063 1.297 2.141 1.381 3.234 0.088 1.087-0.223 2.166-0.931 3.238zM148.719 134.305l10.903 7.203 2.432-3.682c0.473-0.716 0.64-1.44 0.5-2.17-0.145-0.734-0.556-1.476-1.233-2.226-0.677-0.75-1.576-1.496-2.697-2.237v0c-1.033-0.682-1.939-1.194-2.72-1.534-0.777-0.346-1.457-0.536-2.04-0.57-0.587-0.029-1.099 0.088-1.536 0.35-0.44 0.268-0.832 0.662-1.177 1.184v0z" fill="#ffffff" data-fill-palette-color="primary"></path><path d="M171.639 123.645v0c-0.136 0.347-0.302 0.739-0.496 1.178-0.198 0.43-0.409 0.866-0.632 1.307-0.226 0.447-0.443 0.87-0.649 1.268-0.207 0.398-0.404 0.728-0.593 0.989v0l-1.7-0.669c0.176-0.374 0.383-0.818 0.621-1.333 0.241-0.52 0.486-1.082 0.737-1.683 0.255-0.593 0.495-1.175 0.719-1.745v0c0.246-0.625 0.407-1.206 0.482-1.741 0.075-0.536 0.006-1.006-0.207-1.412-0.21-0.412-0.606-0.732-1.188-0.961v0l-0.938-0.369c-0.656-0.258-1.228-0.279-1.713-0.063-0.488 0.223-0.875 0.696-1.16 1.421v0l-0.647 1.644c-0.548 1.393-1.28 2.353-2.196 2.88-0.913 0.52-2.112 0.488-3.598-0.096v0l-0.873-0.344c-1.542-0.607-2.48-1.459-2.814-2.555-0.334-1.097-0.197-2.416 0.41-3.959v0c0.202-0.514 0.443-1.052 0.721-1.614 0.285-0.56 0.57-1.102 0.855-1.627 0.291-0.522 0.546-0.951 0.764-1.287v0l1.7 0.669c-0.302 0.639-0.636 1.352-1.002 2.137-0.369 0.792-0.693 1.544-0.974 2.256v0c-0.241 0.613-0.38 1.166-0.417 1.66-0.039 0.5 0.07 0.939 0.328 1.319 0.252 0.378 0.7 0.694 1.344 0.948v0l0.65 0.256c0.786 0.31 1.419 0.312 1.897 0.006 0.469-0.302 0.852-0.83 1.149-1.586v0l0.695-1.765c0.363-0.923 0.828-1.612 1.394-2.069 0.566-0.457 1.197-0.716 1.893-0.779 0.697-0.062 1.417 0.053 2.16 0.346v0l1.133 0.446c1.139 0.448 1.921 1.024 2.346 1.728 0.43 0.706 0.605 1.497 0.525 2.373-0.087 0.874-0.328 1.816-0.726 2.826z" fill="#ffffff" data-fill-palette-color="primary"></path><path d="M2.521 92.398c0-3.829 3.104-6.933 6.932-6.933 3.829 0 6.933 3.104 6.933 6.933 0 3.829-3.104 6.933-6.933 6.933-3.829 0-6.933-3.104-6.932-6.933z" fill="#ffffff" data-fill-palette-color="primary"></path><path d="M164.083 92.398c0-3.829 3.104-6.933 6.933-6.933 3.829 0 6.933 3.104 6.933 6.933 0 3.829-3.104 6.933-6.933 6.933-3.829 0-6.933-3.104-6.933-6.933z" fill="#ffffff" data-fill-palette-color="primary"></path></g></svg></g></svg></g></svg></g><g></g></svg></g></svg></g></svg></g><defs></defs></svg><rect width="320" height="360" fill="none" stroke="none" visibility="hidden"></rect></g></svg></g></svg>